HIERARCHY
ROOT wake_up
{
	OFFSET 0.000000 0.000000 0.000000
	CHANNELS 6 Xposition Yposition Zposition Xrotation Yrotation Zrotation
	JOINT Spine_01
	{
		OFFSET -15.726042 46.479080 -35.209511
		CHANNELS 3 Xrotation Yrotation Zrotation
		JOINT Spine_02
		{
			OFFSET 5.541418 1.877865 29.024694
			CHANNELS 3 Xrotation Yrotation Zrotation
			JOINT Spine_03
			{
				OFFSET 2.628587 0.174591 36.885056
				CHANNELS 3 Xrotation Yrotation Zrotation
				JOINT Spine_04
				{
					OFFSET -1.603225 -5.055920 40.606491
					CHANNELS 3 Xrotation Yrotation Zrotation
					JOINT Neck_Base
					{
						OFFSET -0.168962 -9.199429 28.191780
						CHANNELS 3 Xrotation Yrotation Zrotation
						JOINT Neck_01
						{
							OFFSET 4.346485 -1.182629 20.268997
							CHANNELS 3 Xrotation Yrotation Zrotation
							JOINT Neck_02
							{
								OFFSET 13.406309 -10.525919 13.310966
								CHANNELS 3 Xrotation Yrotation Zrotation
								JOINT Head
								{
									OFFSET 16.539116 -9.371456 11.006622
									CHANNELS 3 Xrotation Yrotation Zrotation
									JOINT L_Ear
									{
										OFFSET 10.807261 8.380554 15.353119
										CHANNELS 3 Xrotation Yrotation Zrotation
										End Site
										{
											OFFSET -13.339039 7.885466 6.691162
										}
									}
									JOINT R_Ear
									{
										OFFSET 8.888998 -7.259084 17.059998
										CHANNELS 3 Xrotation Yrotation Zrotation
										End Site
										{
											OFFSET 14.657318 2.863599 -7.864151
										}
									}
									JOINT Jaw
									{
										OFFSET 8.252729 -1.501899 -4.488205
										CHANNELS 3 Xrotation Yrotation Zrotation
										End Site
										{
											OFFSET -1.212494 1.973128 16.718811
										}
									}
								}
							}
						}
					}
					JOINT R_Scapula
					{
						OFFSET -10.245760 10.888084 13.737778
						CHANNELS 3 Xrotation Yrotation Zrotation
						JOINT R_Shoulder
						{
							OFFSET 2.703691 -31.987474 27.049423
							CHANNELS 3 Xrotation Yrotation Zrotation
							JOINT R_Front_UpperLeg
							{
								OFFSET 0.030283 -1.734751 -33.251938
								CHANNELS 3 Xrotation Yrotation Zrotation
								JOINT R_Front_LowerLeg
								{
									OFFSET 6.147914 -17.940323 35.051308
									CHANNELS 3 Xrotation Yrotation Zrotation
									JOINT R_Front_Ankle
									{
										OFFSET -0.635985 3.245901 -30.461060
										CHANNELS 3 Xrotation Yrotation Zrotation
										JOINT R_Front_Hoof
										{
											OFFSET 0.000006 0.276510 -10.049828
											CHANNELS 3 Xrotation Yrotation Zrotation
											End Site
											{
												OFFSET -0.000003 9.060736 4.356453
											}
										}
									}
								}
							}
						}
					}
					JOINT L_Scapula
					{
						OFFSET 2.941061 13.667645 14.723839
						CHANNELS 3 Xrotation Yrotation Zrotation
						JOINT L_Shoulder
						{
							OFFSET 8.976520 -37.668716 16.206238
							CHANNELS 3 Xrotation Yrotation Zrotation
							JOINT L_Front_UpperLeg
							{
								OFFSET 1.958391 3.515308 -33.053032
								CHANNELS 3 Xrotation Yrotation Zrotation
								JOINT L_Front_LowerLeg
								{
									OFFSET 8.184884 -19.069668 34.023247
									CHANNELS 3 Xrotation Yrotation Zrotation
									JOINT L_Front_Ankle
									{
										OFFSET -2.711665 1.301991 -30.491951
										CHANNELS 3 Xrotation Yrotation Zrotation
										JOINT L_Front_Hoof
										{
											OFFSET 0.004587 0.949739 -10.008595
											CHANNELS 3 Xrotation Yrotation Zrotation
											End Site
											{
												OFFSET 0.011363 -8.748222 -4.954044
											}
										}
									}
								}
							}
						}
					}
				}
			}
		}
		JOINT L_Hip
		{
			OFFSET 13.339148 -2.475483 -15.636066
			CHANNELS 3 Xrotation Yrotation Zrotation
			JOINT L_Back_UpperLeg
			{
				OFFSET 17.466444 -21.713903 21.987526
				CHANNELS 3 Xrotation Yrotation Zrotation
				JOINT L_Back_LowerLeg
				{
					OFFSET -2.525522 -6.718699 -44.338810
					CHANNELS 3 Xrotation Yrotation Zrotation
					JOINT L_Back_Ankle
					{
						OFFSET 5.338428 -5.874825 35.304855
						CHANNELS 3 Xrotation Yrotation Zrotation
						JOINT L_Back_Hoof
						{
							OFFSET 1.776194 0.058387 11.538919
							CHANNELS 3 Xrotation Yrotation Zrotation
							End Site
							{
								OFFSET 1.266060 3.069224 11.192941
							}
						}
					}
				}
			}
		}
		JOINT R_Hip
		{
			OFFSET -13.794096 -12.667450 -8.820641
			CHANNELS 3 Xrotation Yrotation Zrotation
			JOINT R_Back_UpperLeg
			{
				OFFSET 9.792694 -20.890841 26.976009
				CHANNELS 3 Xrotation Yrotation Zrotation
				JOINT R_Back_LowerLeg
				{
					OFFSET -8.441336 -4.726068 -43.861732
					CHANNELS 3 Xrotation Yrotation Zrotation
					JOINT R_Back_Ankle
					{
						OFFSET 23.149288 -2.053929 27.737022
						CHANNELS 3 Xrotation Yrotation Zrotation
						JOINT R_Back_Hoof
						{
							OFFSET 8.671298 0.439285 7.805099
							CHANNELS 3 Xrotation Yrotation Zrotation
							End Site
							{
								OFFSET -0.550738 2.285357 -11.435810
							}
						}
					}
				}
			}
		}
		JOINT Tail_01
		{
			OFFSET -8.775034 8.242878 -22.608025
			CHANNELS 3 Xrotation Yrotation Zrotation
			JOINT Tail_02
			{
				OFFSET -0.650974 -12.905975 -17.916740
				CHANNELS 3 Xrotation Yrotation Zrotation
				JOINT Tail_03
				{
					OFFSET 9.878128 -20.487425 -5.282875
					CHANNELS 3 Xrotation Yrotation Zrotation
					JOINT Tail_04
					{
						OFFSET 19.391647 -12.774627 -0.430954
						CHANNELS 3 Xrotation Yrotation Zrotation
						JOINT Tail_05
						{
							OFFSET 21.815006 -3.091185 7.782555
							CHANNELS 3 Xrotation Yrotation Zrotation
							End Site
							{
								OFFSET 13.488668 -13.065145 -13.905975
							}
						}
					}
				}
			}
		}
	}
}
MOTION
Frames: 6
Frame Time: 0.033333
0.000000 0.000000 0.000000 0.000005 -0.000003 0.000000 0.695297 -1.850366 0.011220 -0.278116 1.849042 -5.455336 -11.589735 -0.224790 -0.923733 -13.662152 -0.927657 -0.215175 -44.969774 -20.206000 -6.592155 -21.590255 -16.123302 -12.970203 -25.671804 17.409758 -24.102635 16.112908 10.015931 -25.141332 -0.000140 -0.000008 0.000077 -0.000205 0.000014 0.000044 -0.000020 -0.000004 0.000027 6.445714 5.201861 -5.299405 -30.722491 -2.416780 -0.558406 5.919728 -21.444482 -9.288554 -115.010304 -17.560403 -30.503895 10.844477 2.775305 35.563610 -0.000005 0.000035 0.000245 -9.585574 -3.128850 -0.726188 -38.916348 -8.696082 -6.615206 19.320279 9.046796 12.026465 -98.610767 -20.948474 -14.578455 4.180477 24.861040 11.921758 3.618644 0.000013 0.000165 0.515418 0.192946 -0.130276 0.643717 2.178445 1.234312 0.073187 0.021688 -0.007415 -1.941334 -0.504375 -1.160152 -0.000025 -0.000003 -0.000081 0.067956 0.025514 -0.017089 -1.147085 0.027767 1.308975 -0.042171 -0.149038 0.024102 0.467227 1.936455 -1.306732 0.000086 0.000010 0.000025 -0.003680 -0.073227 -0.101410 0.052890 -0.109748 -0.028268 0.104420 -0.068798 -0.002262 0.116775 -0.016500 0.041668 0.090904 0.002476 0.085903 
0.000000 0.000000 0.000000 0.000005 -0.000003 0.000000 0.694879 -1.850348 0.011282 -0.283220 1.848425 -5.480121 -11.586161 -0.220262 -0.957453 -13.661650 -0.924729 -0.214861 -45.179813 -20.247261 -6.641833 -21.654654 -16.184575 -12.921947 -25.686690 17.379611 -24.103668 16.180363 10.147952 -25.164196 0.000952 -0.000090 -0.000050 0.000954 -0.000091 -0.000049 -0.000019 0.000007 0.000026 6.102895 5.251140 -5.317870 -30.534439 -2.403262 -0.551127 6.121951 -21.489730 -9.217277 -114.923151 -17.574485 -30.476041 11.373777 3.186683 35.493648 -0.000012 0.000036 0.000231 -9.583901 -3.128286 -0.726015 -38.932550 -8.698571 -6.619042 19.351174 9.007769 12.099062 -98.649570 -20.949568 -14.589667 4.228815 24.913830 11.909259 3.618641 0.000012 0.000192 0.487404 0.182493 -0.123158 0.713340 2.202025 1.217238 0.104237 0.030889 -0.010591 -2.013431 -0.526241 -1.149486 -0.000030 -0.000003 -0.000109 0.094818 0.035586 -0.023847 -1.172649 0.004976 1.350982 -0.047923 -0.169385 0.027385 0.473654 1.969077 -1.345852 0.000145 0.000016 0.000080 -0.003459 -0.072114 -0.099318 0.052896 -0.109703 -0.028216 0.102375 -0.067444 -0.002224 0.114490 -0.016166 0.040844 0.089113 0.002439 0.084204 
0.000000 0.000000 0.000000 0.000005 -0.000003 0.000000 0.691896 -1.850249 0.011838 -0.298886 1.846823 -5.548826 -11.577761 -0.208324 -1.051037 -13.660662 -0.916856 -0.214103 -45.777127 -20.362278 -6.782990 -21.841716 -16.360132 -12.784049 -25.732132 17.295762 -24.107438 16.377885 10.524556 -25.232356 0.000213 0.000009 -0.000014 0.000201 0.000002 -0.000015 -0.000019 0.000007 0.000026 5.751886 5.302599 -5.336846 -30.344642 -2.389592 -0.543829 6.431863 -21.556323 -9.013939 -114.887334 -17.580260 -30.464590 11.948761 3.669055 35.383532 -0.000007 0.000036 0.000216 -9.579018 -3.126637 -0.725533 -38.979340 -8.705755 -6.630120 19.449254 8.904939 12.297611 -98.752186 -20.952452 -14.619325 4.356495 25.057019 11.873305 3.618645 0.000012 0.000219 0.465531 0.174329 -0.117608 0.773184 2.221276 1.200682 0.131195 0.038874 -0.013356 -2.075259 -0.545105 -1.138430 -0.000044 -0.000004 -0.000194 0.169085 0.063439 -0.042563 -1.241322 -0.056459 1.463555 -0.063400 -0.224173 0.036216 0.490767 2.056258 -1.450705 0.000028 0.000013 -0.000025 -0.003347 -0.067962 -0.093848 0.052649 -0.109247 -0.028137 0.096689 -0.063704 -0.002103 0.108128 -0.015278 0.038584 0.084165 0.002284 0.079541 
0.000000 0.000000 0.000000 0.000005 -0.000003 0.000000 0.683819 -1.850018 0.013342 -0.325648 1.844564 -5.653012 -11.567996 -0.191390 -1.193130 -13.659978 -0.905326 -0.213119 -46.716455 -20.538087 -7.006782 -22.145408 -16.641443 -12.565711 -25.810296 17.169267 -24.116544 16.695547 11.128122 -25.345334 0.000062 0.000025 -0.000003 0.000039 0.000013 -0.000007 -0.000019 0.000006 0.000026 5.409409 5.353828 -5.355430 -30.162098 -2.376425 -0.536851 6.858431 -21.629722 -8.694308 -114.936566 -17.572318 -30.480330 12.578646 4.211234 35.236949 -0.000009 0.000037 0.000201 -9.571186 -3.123998 -0.724763 -39.053953 -8.717193 -6.647796 19.622848 8.760153 12.593183 -98.898318 -20.956453 -14.661573 4.537692 25.267778 11.815817 3.618640 0.000011 0.000246 0.448505 0.167970 -0.113273 0.831797 2.238139 1.180779 0.158143 0.046855 -0.016123 -2.135569 -0.563726 -1.123829 -0.000019 -0.000003 -0.000024 0.281248 0.105445 -0.070893 -1.341129 -0.146261 1.626651 -0.086019 -0.304288 0.049110 0.515500 2.182139 -1.602447 0.000041 0.000010 -0.000014 -0.002957 -0.062134 -0.085470 0.052069 -0.108037 -0.027830 0.088105 -0.058054 -0.001921 0.098538 -0.013917 0.035145 0.076696 0.002078 0.072482 
0.000000 0.000000 0.000000 0.000005 -0.000003 0.000000 0.668082 -1.849570 0.016264 -0.364072 1.841977 -5.784261 -11.560348 -0.171789 -1.372315 -13.660404 -0.891324 -0.212088 -47.955175 -20.761589 -7.306589 -22.560863 -17.023077 -12.274915 -25.923869 17.012797 -24.134829 17.128281 11.943189 -25.504811 -0.000000 0.000036 -0.000001 -0.000036 0.000022 -0.000005 -0.000019 0.000008 0.000026 5.092052 5.402202 -5.372690 -29.995281 -2.364370 -0.530509 7.409921 -21.694175 -8.274164 -115.105107 -17.545038 -30.534187 13.272956 4.802406 35.057643 -0.000009 0.000037 0.000186 -9.560629 -3.120446 -0.723713 -39.153752 -8.732450 -6.671464 19.880123 8.595525 12.956766 -99.067550 -20.960975 -14.710515 4.746563 25.522894 11.738589 3.618638 0.000008 0.000353 0.435025 0.162938 -0.109857 0.897703 2.254501 1.153659 0.189153 0.056038 -0.019307 -2.203033 -0.584842 -1.102599 -0.000021 -0.000002 -0.000049 0.421912 0.158038 -0.106524 -1.460001 -0.254122 1.820206 -0.113113 -0.400353 0.064525 0.544619 2.330778 -1.782354 0.000054 0.000007 -0.000006 -0.002818 -0.054000 -0.075151 0.050922 -0.105688 -0.027223 0.077352 -0.050967 -0.001688 0.086499 -0.012222 0.030862 0.067333 0.001813 0.063638 
0.000000 0.000000 0.000000 0.000005 -0.000003 0.000000 0.642132 -1.848751 0.021067 -0.414707 1.839329 -5.934210 -11.558316 -0.151785 -1.577135 -13.662733 -0.875930 -0.211112 -49.449511 -21.019069 -7.675859 -23.080553 -17.500159 -11.918597 -26.076452 16.840441 -24.166451 17.669853 12.951466 -25.713171 -0.000035 0.000045 -0.000002 -0.000128 0.000023 -0.000001 -0.000019 0.000005 0.000026 4.816430 5.444944 -5.387730 -29.852247 -2.354017 -0.525099 8.093853 -21.732649 -7.769551 -115.427752 -17.492362 -30.637059 14.041602 5.432383 34.849411 -0.000007 0.000039 0.000109 -9.547578 -3.116073 -0.722412 -39.276012 -8.751086 -6.700492 20.228662 8.433248 13.359073 -99.239042 -20.965411 -14.760116 4.957185 25.798883 11.643458 3.618644 0.000014 0.000142 0.423824 0.158754 -0.107014 0.979311 2.272248 1.115477 0.228303 0.067628 -0.023338 -2.286198 -0.611153 -1.071631 -0.000025 -0.000002 -0.000072 0.581571 0.217613 -0.147115 -1.586106 -0.369304 2.024088 -0.142087 -0.503185 0.080971 0.574897 2.485895 -1.971500 0.000063 0.000014 0.000005 -0.002175 -0.045958 -0.063178 0.049069 -0.101809 -0.026238 0.065140 -0.042929 -0.001416 0.072859 -0.010298 0.025998 0.056701 0.001507 0.053602 
